<?xml version="1.0" encoding="UTF-8" standalone="no"?>
<svg
   xmlns:dc="http://purl.org/dc/elements/1.1/"
   xmlns:cc="http://creativecommons.org/ns#"
   xmlns:rdf="http://www.w3.org/1999/02/22-rdf-syntax-ns#"
   xmlns:svg="http://www.w3.org/2000/svg"
   xmlns="http://www.w3.org/2000/svg"
   xmlns:sodipodi="http://sodipodi.sourceforge.net/DTD/sodipodi-0.dtd"
   xmlns:inkscape="http://www.inkscape.org/namespaces/inkscape"
   width="586.42401"
   height="587.97162"
   viewBox="0 0 586.42401 587.97162"
   version="1.1"
   xml:space="preserve"
   style="clip-rule:evenodd;fill-rule:evenodd;stroke-linecap:round;stroke-linejoin:round;stroke-miterlimit:1.5"
   id="svg23"
   sodipodi:docname="steam_black_logo.svg"
   inkscape:version="1.0.2-2 (e86c870879, 2021-01-15)"><metadata
   id="metadata29"><rdf:RDF><cc:Work
       rdf:about=""><dc:format>image/svg+xml</dc:format><dc:type
         rdf:resource="http://purl.org/dc/dcmitype/StillImage" /><dc:title></dc:title></cc:Work></rdf:RDF></metadata><defs
   id="defs27" /><sodipodi:namedview
   pagecolor="#ffffff"
   bordercolor="#666666"
   borderopacity="1"
   objecttolerance="10"
   gridtolerance="10"
   guidetolerance="10"
   inkscape:pageopacity="0"
   inkscape:pageshadow="2"
   inkscape:window-width="2560"
   inkscape:window-height="1377"
   id="namedview25"
   showgrid="false"
   fit-margin-top="0"
   fit-margin-left="0"
   fit-margin-right="0"
   fit-margin-bottom="0"
   inkscape:zoom="1.5346097"
   inkscape:cx="330.11916"
   inkscape:cy="345.54482"
   inkscape:window-x="1912"
   inkscape:window-y="-8"
   inkscape:window-maximized="1"
   inkscape:current-layer="Artboard1" />
    <g
   id="Artboard1"
   transform="translate(-77.516,-263.00638)">
        
        <clipPath
   id="_clip1">
            <rect
   x="77.258003"
   y="250.056"
   width="678.70599"
   height="600.922"
   id="rect4" />
        </clipPath>
        <g
   clip-path="url(#_clip1)"
   id="g20"
   style="display:inline">
            <g
   id="logo"
   transform="translate(0.258,0.0563848)">
                <path
   d="M 230.878,591.046 77.258,526.101 C 92.695,378.32 217.815,262.95 369.668,262.95 c 162.271,0 294.014,131.743 294.014,294.014 0,162.271 -131.743,294.014 -294.014,294.014 -132.997,0 -245.488,-88.498 -281.747,-209.773 l 106.032,44.826 c 9.852,36.734 43.397,63.808 83.216,63.808 47.545,0 86.146,-38.6 86.146,-86.145 0,-1.232 -0.026,-2.457 -0.077,-3.672 l 94.357,-64.416 c 2.518,0.158 5.06,0.238 7.621,0.238 66.339,0 120.198,-53.859 120.198,-120.198 0,-66.338 -53.859,-120.197 -120.198,-120.197 -66.339,0 -120.198,53.859 -120.198,120.197 0,5.069 0.315,10.064 0.927,14.977 l -61.085,87.264 c -2.535,-0.225 -5.1,-0.339 -7.691,-0.339 -17.031,0 -32.914,4.952 -46.291,13.498 z m 31.865,13.471 c 5.418,-1.526 11.136,-2.342 17.042,-2.342 34.684,0 62.843,28.158 62.843,62.842 0,34.684 -28.159,62.842 -62.843,62.842 -21.587,0 -40.646,-10.908 -51.962,-27.508 l 29.852,12.62 c 25.892,10.946 55.8,-1.188 66.747,-27.08 10.946,-25.892 -1.188,-55.8 -27.08,-66.746 z M 468.125,399.564 c -40.504,0 -73.454,33.344 -73.454,74.495 0,41.151 32.95,74.495 73.454,74.495 40.504,0 73.454,-33.344 73.454,-74.495 0,-41.151 -32.95,-74.495 -73.454,-74.495 z m 0,16.654 c 31.386,0 56.801,25.953 56.801,57.841 0,31.887 -25.415,57.841 -56.801,57.841 -31.386,0 -56.8,-25.954 -56.8,-57.841 0,-31.888 25.414,-57.841 56.8,-57.841 z"
   style="fill:#000000;fill-opacity:1"
   id="path7" />
            </g>
            
        </g>
    </g>
</svg>
